HIERARCHY
ROOT Hips
{
	OFFSET -3.958830 18.904000 13.208200
	CHANNELS 6 Xposition Yposition Zposition Zrotation Yrotation Xrotation 
	JOINT LHipJoint
	{
		OFFSET 0.000000 0.000000 0.000000
		CHANNELS 3 Zrotation Yrotation Xrotation
		JOINT LeftUpLeg
		{
			OFFSET 1.800000 -1.400000 0.085000
			CHANNELS 3 Zrotation Yrotation Xrotation
			JOINT LeftLeg
			{
				OFFSET 2.215000 -6.000000 0.000000
				CHANNELS 3 Zrotation Yrotation Xrotation
				JOINT LeftFoot
				{
					OFFSET 2.500000 -6.900000 0.000000
					CHANNELS 3 Zrotation Yrotation Xrotation
					JOINT LeftToeBase
					{
						OFFSET 0.200000 -0.500000 1.950000
						CHANNELS 3 Zrotation Yrotation Xrotation
						End Site
						{
							OFFSET 0.000000 0.000000 0.000000
						}
					}
				}
			}
		}
	}
	JOINT RHipJoint
	{
		OFFSET 0.000000 0.000000 0.000000
		CHANNELS 3 Zrotation Yrotation Xrotation
		JOINT RightUpLeg
		{
			OFFSET -1.800000 -1.400000 0.085000
			CHANNELS 3 Zrotation Yrotation Xrotation
			JOINT RightLeg
			{
				OFFSET -2.215000 -6.000000 0.000000
				CHANNELS 3 Zrotation Yrotation Xrotation
				JOINT RightFoot
				{
					OFFSET -2.500000 -6.900000 0.000000
					CHANNELS 3 Zrotation Yrotation Xrotation
					JOINT RightToeBase
					{
						OFFSET -0.200000 -0.500000 1.950000
						CHANNELS 3 Zrotation Yrotation Xrotation
						End Site
						{
							OFFSET 0.000000 0.000000 0.000000
						}
					}
				}
			}
		}
	}
	JOINT LowerBack
	{
		OFFSET 0.000000 0.000000 0.000000
		CHANNELS 3 Zrotation Yrotation Xrotation
		JOINT Spine
		{
			OFFSET -0.087000 1.940000 -0.288900
			CHANNELS 3 Zrotation Yrotation Xrotation
			JOINT Spine1
			{
				OFFSET 0.000000 1.950000 0.060000
				CHANNELS 3 Zrotation Yrotation Xrotation
				JOINT Neck
				{
					OFFSET 0.000000 0.000000 0.000000
					CHANNELS 3 Zrotation Yrotation Xrotation
					JOINT Neck1
					{
						OFFSET 0.000000 1.600000 0.340000
						CHANNELS 3 Zrotation Yrotation Xrotation
						JOINT Head
						{
							OFFSET 0.000000 1.667000 -0.240000
							CHANNELS 3 Zrotation Yrotation Xrotation
							End Site
							{
								OFFSET 0.000000 0.000000 0.000000
							}
						}
					}
				}
				JOINT LeftShoulder
				{
					OFFSET 0.000000 0.000000 0.000000
					CHANNELS 3 Zrotation Yrotation Xrotation
					JOINT LeftArm
					{
						OFFSET 2.700000 1.550000 -0.730000
						CHANNELS 3 Zrotation Yrotation Xrotation
						JOINT LeftForeArm
						{
							OFFSET 5.450000 0.000000 0.000000
							CHANNELS 3 Zrotation Yrotation Xrotation
							JOINT LeftHand
							{
								OFFSET 3.450000 0.000000 0.000000
								CHANNELS 3 Zrotation Yrotation Xrotation
								JOINT LeftHandIndex1
								{
									OFFSET 0.750000 0.000000 0.000000
									CHANNELS 3 Zrotation Yrotation Xrotation
									End Site
									{
										OFFSET 0.000000 0.000000 0.000000
									}
								}
							}
						}
					}
				}
				JOINT RightShoulder
				{
					OFFSET 0.000000 0.000000 0.000000
					CHANNELS 3 Zrotation Yrotation Xrotation
					JOINT RightArm
					{
						OFFSET -2.700000 1.550000 -0.730000
						CHANNELS 3 Zrotation Yrotation Xrotation
						JOINT RightForeArm
						{
							OFFSET -5.450000 0.000000 0.000000
							CHANNELS 3 Zrotation Yrotation Xrotation
							JOINT RightHand
							{
								OFFSET -3.450000 0.000000 0.000000
								CHANNELS 3 Zrotation Yrotation Xrotation
								JOINT RightHandIndex1
								{
									OFFSET -0.750000 0.000000 0.000000
									CHANNELS 3 Zrotation Yrotation Xrotation
									End Site
									{
										OFFSET 0.000000 0.000000 0.000000
									}
								}
							}
						}
					}
				}
			}
		}
	}
}
MOTION
Frames: 12
Frame Time: 0.016667
0.516600 17.290120 -1.343720 -3.029699 2.589199 3.143766 -15.451835 12.764891 2.997248 -2.061302 0.131526 -3.763449 -7.775093 3.959721 1.232682 -1.166005 6.036829 3.423367 -0.056360 -0.942300 -0.241520 18.237423 -9.928550 3.114722 0.905834 3.051869 -20.109280 6.232880 -3.274933 -2.074332 -0.278676 -3.244060 3.184186 -0.113410 2.072260 1.485540 -3.169675 -1.963815 -7.213180 4.840644 0.021709 4.120019 0.957247 -0.913689 6.270776 2.591282 1.376691 -7.742146 1.958986 4.177674 23.715648 -7.590910 2.488400 -2.239040 -11.846999 -8.887726 1.645448 -16.986112 -13.791119 2.220809 8.623075 -28.323602 -3.264236 -5.083208 2.542839 0.923740 1.298080 -0.247740 0.789290 7.562847 7.830595 4.026473 19.525671 13.168204 -2.589507 -12.108475 27.563585 -2.097528 1.247967 -1.400798 -0.816150 0.751790 0.622220 0.065400 
0.517830 17.289500 -1.343910 -3.038176 2.621277 3.152865 -15.450621 12.764533 2.994918 -2.064315 0.129588 -3.782916 -7.769966 3.963121 1.266144 -1.167535 6.037751 3.424649 -0.056680 -0.943640 -0.240880 18.238814 -9.927306 3.116829 0.921167 3.072317 -20.214150 6.205851 -3.266410 -2.068036 -0.275617 -3.236624 3.187128 -0.113420 2.075020 1.485260 -3.173837 -1.962090 -7.211742 4.875954 0.003519 4.108187 0.924080 -0.926812 6.274911 2.590110 1.375519 -7.735307 1.958642 4.174573 23.677669 -7.594840 2.480170 -2.203860 -11.816680 -8.872895 1.640002 -17.006151 -13.812943 2.230677 8.624538 -28.322559 -3.265779 -5.085551 2.542059 0.922550 1.300100 -0.250120 0.789470 7.531403 7.805335 4.018104 19.572902 13.178765 -2.581582 -12.126427 27.553748 -2.105134 1.247065 -1.401901 -0.817390 0.753230 0.622570 0.065210 
0.519990 17.288300 -1.344100 -3.048015 2.696960 3.174200 -15.449260 12.763338 2.991561 -2.071884 0.129127 -3.812045 -7.768653 3.966386 1.300041 -1.168862 6.039156 3.425634 -0.057100 -0.944010 -0.241990 18.240880 -9.923331 3.120150 0.947004 3.111306 -20.422188 6.145736 -3.248145 -2.058784 -0.270072 -3.222813 3.191409 -0.112030 2.079070 1.486410 -3.179605 -1.961070 -7.208994 4.920821 -0.032415 4.079616 0.875984 -0.957433 6.279982 2.587112 1.378881 -7.720083 1.967237 4.165795 23.596402 -7.605810 2.465130 -2.140790 -11.763232 -8.842923 1.627186 -17.038870 -13.861490 2.251192 8.611942 -28.329362 -3.263184 -5.089947 2.543373 0.918790 1.304150 -0.253200 0.790450 7.479187 7.751764 3.999844 19.652100 13.192673 -2.564154 -12.154954 27.538618 -2.117833 1.245701 -1.405636 -0.817960 0.753750 0.623010 0.066160 
0.523020 17.285970 -1.343860 -3.043741 2.790225 3.216452 -15.447879 12.760079 2.986236 -2.098903 0.130017 -3.861988 -7.778945 3.974973 1.357948 -1.171793 6.042311 3.427837 -0.058960 -0.945430 -0.244010 18.243519 -9.916844 3.124946 0.951718 3.166425 -20.732431 6.089818 -3.222274 -2.060235 -0.260689 -3.205610 3.197414 -0.109970 2.087510 1.486340 -3.186512 -1.957822 -7.203012 4.948160 -0.075042 4.020168 0.824510 -0.995897 6.273465 2.581022 1.389472 -7.683961 1.992246 4.159642 23.454408 -7.624220 2.449990 -2.018960 -11.678904 -8.767156 1.595195 -17.102199 -13.941473 2.291252 8.582102 -28.355560 -3.255518 -5.098678 2.544101 0.911630 1.311880 -0.260640 0.790940 7.403449 7.644086 3.956792 19.768822 13.239653 -2.522440 -12.185138 27.508818 -2.135944 1.243222 -1.411005 -0.820210 0.756350 0.624820 0.067380 
0.526970 17.283250 -1.343520 -3.048317 2.888113 3.255828 -15.445427 12.755651 2.979803 -2.123526 0.131877 -3.912212 -7.791892 3.984750 1.427343 -1.174255 6.046011 3.429546 -0.059420 -0.945390 -0.246010 18.247290 -9.909128 3.132081 0.954659 3.236217 -21.119765 6.034601 -3.191618 -2.063127 -0.250955 -3.184358 3.203562 -0.106860 2.095720 1.487980 -3.196814 -1.951763 -7.197500 5.011159 -0.126305 3.962614 0.739345 -1.038057 6.265456 2.579480 1.397600 -7.642708 2.014828 4.158535 23.296082 -7.635920 2.432100 -1.895090 -11.592780 -8.682608 1.558518 -17.160353 -14.026539 2.334585 8.541460 -28.377047 -3.244738 -5.107442 2.547267 0.903910 1.319820 -0.267310 0.792670 7.314146 7.523736 3.908599 19.920362 13.296159 -2.475485 -12.222458 27.474241 -2.157610 1.240812 -1.418548 -0.821410 0.757700 0.625740 0.069260 
0.531510 17.280090 -1.343100 -3.051980 2.986931 3.302179 -15.442943 12.749723 2.972810 -2.160098 0.134763 -3.971472 -7.801555 3.992106 1.490860 -1.177153 6.049732 3.431157 -0.060140 -0.944940 -0.249950 18.251449 -9.898960 3.141043 0.945004 3.319701 -21.586548 5.985683 -3.156855 -2.069755 -0.239161 -3.160846 3.210544 -0.102760 2.105800 1.490870 -3.207875 -1.944872 -7.191542 5.075847 -0.182138 3.898040 0.658589 -1.085660 6.246132 2.574880 1.403152 -7.588542 2.035386 4.170572 23.108796 -7.649150 2.417210 -1.742470 -11.496402 -8.569836 1.512420 -17.249825 -14.122065 2.387902 8.496484 -28.417835 -3.233443 -5.118663 2.552313 0.893860 1.330110 -0.275400 0.794980 7.221677 7.376957 3.842230 20.074432 13.382113 -2.414274 -12.266245 27.424329 -2.181559 1.237611 -1.427950 -0.822160 0.758500 0.627390 0.071980 
0.536690 17.276990 -1.342720 -3.071977 3.113303 3.334223 -15.440334 12.744087 2.965720 -2.177536 0.138699 -4.026096 -7.816523 3.999412 1.544203 -1.180472 6.052610 3.431288 -0.060490 -0.942980 -0.254640 18.255597 -9.886559 3.152511 0.931219 3.411141 -22.094835 5.937303 -3.117746 -2.093091 -0.226984 -3.134546 3.217841 -0.097470 2.113320 1.492910 -3.219371 -1.940084 -7.188859 5.168519 -0.249179 3.857004 0.571530 -1.141853 6.225375 2.574214 1.406550 -7.540954 2.050913 4.177223 22.933377 -7.659110 2.398340 -1.612580 -11.400989 -8.467845 1.468684 -17.338442 -14.216107 2.436888 8.442883 -28.474594 -3.219493 -5.127711 2.557970 0.884540 1.338910 -0.282360 0.797020 7.120773 7.239225 3.784957 20.233617 13.444830 -2.364754 -12.339730 27.376037 -2.211531 1.234512 -1.437592 -0.822880 0.758270 0.628600 0.074430 
0.542340 17.274520 -1.342580 -3.101070 3.257255 3.329330 -15.438784 12.741573 2.960249 -2.173994 0.147219 -4.048575 -7.837317 4.009124 1.583265 -1.180899 6.056883 3.430909 -0.060250 -0.941710 -0.256420 18.258137 -9.871887 3.165874 0.911549 3.504071 -22.614774 5.880822 -3.077551 -2.129463 -0.217174 -3.103615 3.225662 -0.094980 2.117810 1.494890 -3.227176 -1.943143 -7.192242 5.267474 -0.324470 3.870567 0.497582 -1.203279 6.203707 2.579182 1.405563 -7.510156 2.052890 4.175777 22.826858 -7.679920 2.387950 -1.528880 -11.342369 -8.404233 1.439686 -17.405481 -14.281098 2.465310 8.398335 -28.539977 -3.209832 -5.132948 2.562750 0.878540 1.344070 -0.286310 0.798180 7.045244 7.145571 3.746773 20.342605 13.477588 -2.338608 -12.416374 27.317779 -2.235803 1.233536 -1.444392 -0.822330 0.757520 0.629050 0.076090 
0.548430 17.272470 -1.342530 -3.139351 3.407529 3.296475 -15.437622 12.740864 2.955155 -2.153381 0.159058 -4.045532 -7.856611 4.020010 1.623629 -1.179433 6.060839 3.429496 -0.057480 -0.937860 -0.256460 18.259895 -9.856001 3.181131 0.883977 3.598794 -23.148163 5.825279 -3.036275 -2.174991 -0.209456 -3.070280 3.233516 -0.092240 2.118610 1.497450 -3.233393 -1.949708 -7.199433 5.376431 -0.400950 3.920509 0.431990 -1.263917 6.180617 2.587852 1.401089 -7.486732 2.045425 4.166595 22.767159 -7.688470 2.369990 -1.490840 -11.296686 -8.356273 1.413455 -17.495828 -14.367182 2.491205 8.394024 -28.555251 -3.210460 -5.134793 2.567705 0.874720 1.346220 -0.286980 0.799970 6.975098 7.072636 3.719676 20.443295 13.495811 -2.324961 -12.514776 27.238049 -2.261558 1.234003 -1.450928 -0.819960 0.755190 0.627390 0.077670 
0.555200 17.270590 -1.342260 -3.192063 3.571067 3.245358 -15.435765 12.740352 2.949788 -2.118977 0.173618 -4.020729 -7.864237 4.029165 1.658510 -1.176555 6.062790 3.427262 -0.052150 -0.930660 -0.254940 18.262163 -9.839968 3.197880 0.846936 3.695595 -23.695336 5.770802 -2.994345 -2.223015 -0.203357 -3.035563 3.240998 -0.088840 2.116140 1.500360 -3.241572 -1.955356 -7.208644 5.520655 -0.488644 3.988578 0.354983 -1.332779 6.151742 2.599587 1.391552 -7.458555 2.028299 4.156651 22.730444 -7.696600 2.352720 -1.492630 -11.250910 -8.299740 1.384671 -17.588517 -14.452132 2.517550 8.365630 -28.578334 -3.204251 -5.134176 2.574841 0.871270 1.346240 -0.285490 0.801770 6.897220 6.993390 3.684774 20.550236 13.546937 -2.301005 -12.623556 27.104508 -2.286832 1.236094 -1.457845 -0.815160 0.751240 0.624300 0.079250 
0.562730 17.268610 -1.341690 -3.250151 3.755546 3.191115 -15.433309 12.740140 2.943397 -2.079087 0.187320 -4.002693 -7.873831 4.041352 1.713773 -1.172827 6.063905 3.424811 -0.045990 -0.922340 -0.253240 18.264824 -9.823850 3.215652 0.788963 3.793809 -24.265142 5.719828 -2.952696 -2.265855 -0.197224 -3.000849 3.248627 -0.085190 2.112870 1.503680 -3.251419 -1.960581 -7.217935 5.687272 -0.582634 4.057555 0.264559 -1.405658 6.124211 2.613291 1.380014 -7.431579 2.008135 4.142850 22.686298 -7.705020 2.332450 -1.490540 -11.196324 -8.242719 1.354292 -17.687707 -14.550519 2.546792 8.329285 -28.603933 -3.195586 -5.133464 2.583413 0.866740 1.346270 -0.283870 0.803800 6.804864 6.910626 3.653671 20.677595 13.580395 -2.281257 -12.743587 26.985040 -2.315685 1.237951 -1.466045 -0.809070 0.746250 0.620630 0.081040 
0.570590 17.266470 -1.340630 -3.290600 3.948235 3.140248 -15.431946 12.740275 2.937982 -2.056349 0.204491 -3.978516 -7.883403 4.051635 1.760815 -1.167152 6.064289 3.421567 -0.039240 -0.912340 -0.251980 18.266518 -9.807017 3.232384 0.698121 3.888441 -24.856763 5.657996 -2.912604 -2.285955 -0.191606 -2.967027 3.253739 -0.081110 2.108800 1.509670 -3.258338 -1.967979 -7.226270 5.818492 -0.675972 4.118459 0.190652 -1.482484 6.088394 2.629117 1.375369 -7.398362 1.999779 4.127162 22.632873 -7.722800 2.317410 -1.481110 -11.137949 -8.167682 1.318126 -17.798015 -14.658589 2.581216 8.284550 -28.633088 -3.183796 -5.133506 2.595350 0.860440 1.346880 -0.281110 0.805610 6.707369 6.807940 3.614108 20.804500 13.619475 -2.252182 -12.845015 26.872863 -2.340425 1.240790 -1.476589 -0.800350 0.738190 0.616630 0.083990 
